# Blender 4.1.1
# www.blender.org
mtllib partail_deriere_porte_v1.mtl
o Cube.001
v -0.783196 -3.000000 1.000000
v -0.783196 1.000000 1.000000
v -0.783196 -3.000000 -1.000000
v -0.783196 1.000000 -1.000000
v -0.737039 -3.000000 1.000000
v -0.737039 1.000000 1.000000
v -0.737039 -3.000000 -1.000000
v -0.737039 1.000000 -1.000000
v -0.783196 -2.953717 1.000000
v -0.783196 -2.953717 -1.000000
v -0.737039 -2.953717 -1.000000
v -0.737039 -2.953717 1.000000
v -0.783196 0.909444 1.000000
v -0.783196 0.909444 -1.000000
v -0.737039 0.909444 -1.000000
v -0.737039 0.909444 1.000000
v -0.783196 -3.000000 -0.876738
v -0.783196 1.000000 -0.876738
v -0.737039 -3.000000 -0.876738
v -0.737039 1.000000 -0.876738
v -0.861570 -2.953717 -0.876738
v -0.783196 -2.953717 -0.876738
v -0.861570 0.909444 -0.876738
v -0.783196 0.909444 -0.876738
v -0.783196 -3.000000 0.896351
v -0.737039 1.000000 0.896351
v -0.861570 -2.953717 0.896351
v -0.861570 0.909444 0.896351
v -0.783196 1.000000 0.896351
v -0.737039 -3.000000 0.896351
v -0.783196 -2.953717 0.896351
v -0.783196 0.909444 0.896351
v -0.687039 1.000000 -0.876738
v -0.687039 0.909444 -0.876738
v -0.687039 1.000000 0.896351
v -0.687039 0.909444 0.896351
v -0.687039 0.909444 1.000000
v -0.687039 -2.953717 1.000000
v -0.687039 -2.953717 0.896351
v -0.687039 0.909444 0.896351
v -0.687039 -3.000000 0.896351
v -0.687039 -3.000000 -0.876738
v -0.687039 -2.953717 -0.876738
v -0.687039 -2.953717 0.896351
v -0.687039 0.909444 -1.000000
v -0.687039 -2.953717 -1.000000
v -0.687039 -2.953717 -0.876738
v -0.687039 0.909444 -0.876738
v -0.687039 -2.953717 -1.000000
v -0.687039 -3.000000 -1.000000
v -0.687039 -3.000000 -0.876738
v -0.687039 -2.953717 -0.876738
v -0.687039 -2.953717 1.000000
v -0.687039 -3.000000 1.000000
v -0.687039 -2.953717 0.896351
v -0.687039 -3.000000 0.896351
v -0.687039 1.000000 0.896351
v -0.687039 1.000000 1.000000
v -0.687039 0.909444 1.000000
v -0.687039 0.909444 0.896351
v -0.737039 1.000000 -1.000000
v -0.737039 0.909444 -1.000000
v -0.737039 1.000000 -0.876738
v -0.737039 0.909444 -0.876738
v -0.687039 1.000000 -1.000000
v -0.687039 0.909444 -1.000000
v -0.687039 1.000000 -0.876738
v -0.687039 0.909444 -0.876738
v -0.739812 -3.000000 1.000000
v -0.739812 1.000000 1.000000
v -0.739812 -3.000000 -1.000000
v -0.739812 1.000000 -1.000000
v -0.722572 -3.000000 1.000000
v -0.722572 1.000000 1.000000
v -0.722572 -3.000000 -1.000000
v -0.722572 1.000000 -1.000000
vn -1.0000 -0.0000 -0.0000
vn -0.0000 -0.0000 -1.0000
vn -0.0000 -1.0000 -0.0000
vn -0.0000 -0.0000 1.0000
vn -0.0000 1.0000 -0.0000
vn 1.0000 -0.0000 -0.0000
vt 0.619340 0.234592
vt 0.625000 0.234592
vt 0.625000 0.250000
vt 0.619340 0.250000
vt 0.625000 0.500000
vt 0.619340 0.500000
vt 0.619340 0.750000
vt 0.619340 0.737044
vt 0.625000 0.750000
vt 0.625000 1.000000
vt 0.619340 1.000000
vt 0.125000 0.737044
vt 0.375000 0.737044
vt 0.375000 0.750000
vt 0.125000 0.750000
vt 0.625000 0.737044
vt 0.875000 0.737044
vt 0.875000 0.750000
vt 0.377893 0.750000
vt 0.377893 1.000000
vt 0.375000 1.000000
vt 0.375000 0.250000
vt 0.377893 0.250000
vt 0.377893 0.500000
vt 0.375000 0.500000
vt 0.375000 0.234592
vt 0.377893 0.234592
vt 0.377893 0.737044
vt 0.377893 0.012956
vt 0.619340 0.012956
vt 0.375000 0.012956
vt 0.375000 0.515408
vt 0.875000 0.500000
vt 0.875000 0.515408
vt 0.625000 0.515408
vt 0.125000 0.500000
vt 0.125000 0.515408
vt 0.625000 0.012956
vt 0.619340 0.000000
vt 0.625000 0.000000
vt 0.375000 0.000000
vt 0.377893 0.000000
vt 0.344248 0.000059
vt 0.344249 0.999941
vt 0.000059 0.999941
vt 0.000059 0.000059
vt 0.377893 0.515408
vt 0.619340 0.515408
s 0
usemtl Material.004
f 24/1/1 18/2/1 4/3/1 14/4/1
f 14/4/2 4/3/2 8/5/2 15/6/2
f 16/7/3 28/8/3 60/8/3 59/7/3
f 16/7/4 6/9/4 2/10/4 13/11/4
f 25/12/3 30/13/3 5/14/3 1/15/3
f 26/16/5 29/17/5 2/18/5 6/9/5
f 5/14/4 12/19/4 9/20/4 1/21/4
f 12/19/4 5/14/4 54/14/4 53/19/4
f 3/22/2 10/23/2 11/24/2 7/25/2
f 17/26/1 22/27/1 10/23/1 3/22/1
f 12/19/4 16/7/4 13/11/4 9/20/4
f 27/28/2 28/8/2 40/8/2 39/28/2
f 10/23/2 14/4/2 15/6/2 11/24/2
f 22/27/1 24/1/1 14/4/1 10/23/1
f 31/29/1 32/30/1 24/1/1 22/27/1
f 11/24/2 15/6/2 45/6/2 46/24/2
f 25/31/1 31/29/1 22/27/1 17/26/1
f 19/32/3 7/25/3 50/25/3 51/32/3
f 8/5/5 4/33/5 18/34/5 20/35/5
f 3/36/3 7/25/3 19/32/3 17/37/3
f 15/6/5 8/5/5 61/5/5 62/6/5
f 32/30/1 29/38/1 18/2/1 24/1/1
f 13/39/1 2/40/1 29/38/1 32/30/1
f 1/41/1 9/42/1 31/29/1 25/31/1
f 9/42/1 13/39/1 32/30/1 31/29/1
f 21/43/6 23/44/6 28/45/6 27/46/6
f 21/47/5 27/28/5 44/28/5 43/47/5
f 20/35/5 18/34/5 29/17/5 26/16/5
f 17/37/3 19/32/3 30/13/3 25/12/3
f 23/48/2 20/35/2 33/35/2 34/48/2
f 34/48/6 33/35/6 35/16/6 36/8/6
f 28/8/3 23/48/3 34/48/3 36/8/3
f 20/35/5 26/16/5 35/16/5 33/35/5
f 26/16/4 28/8/4 36/8/4 35/16/4
f 39/28/6 40/8/6 37/7/6 38/19/6
f 28/8/5 16/7/5 37/7/5 40/8/5
f 12/19/3 27/28/3 39/28/3 38/19/3
f 16/7/4 12/19/4 38/19/4 37/7/4
f 42/32/6 43/47/6 44/28/6 41/13/6
f 27/28/4 30/13/4 41/13/4 44/28/4
f 30/13/3 19/32/3 42/32/3 41/13/3
f 19/32/2 21/47/2 43/47/2 42/32/2
f 46/24/6 45/6/6 48/48/6 47/47/6
f 15/6/5 23/48/5 48/48/5 45/6/5
f 21/47/3 11/24/3 46/24/3 47/47/3
f 23/48/4 21/47/4 47/47/4 48/48/4
f 50/25/6 49/24/6 52/47/6 51/32/6
f 11/24/5 21/47/5 52/47/5 49/24/5
f 7/25/2 11/24/2 49/24/2 50/25/2
f 21/47/4 19/32/4 51/32/4 52/47/4
f 56/13/6 55/28/6 53/19/6 54/14/6
f 5/14/3 30/13/3 56/13/3 54/14/3
f 30/13/2 27/28/2 55/28/2 56/13/2
f 27/28/5 12/19/5 53/19/5 55/28/5
f 60/8/6 57/16/6 58/9/6 59/7/6
f 6/9/4 16/7/4 59/7/4 58/9/4
f 26/16/5 6/9/5 58/9/5 57/16/5
f 28/8/2 26/16/2 57/16/2 60/8/2
f 63/35/4 64/48/4 68/48/4 67/35/4
f 8/5/5 20/35/5 63/35/5 61/5/5
f 20/35/4 23/48/4 64/48/4 63/35/4
f 23/48/3 15/6/3 62/6/3 64/48/3
f 66/6/6 65/5/6 67/35/6 68/48/6
f 61/5/5 63/35/5 67/35/5 65/5/5
f 64/48/3 62/6/3 66/6/3 68/48/3
f 62/6/2 61/5/2 65/5/2 66/6/2
usemtl Material.002
f 69/41/1 70/40/1 72/3/1 71/22/1
f 71/22/2 72/3/2 76/5/2 75/25/2
f 75/25/6 76/5/6 74/9/6 73/14/6
f 73/14/4 74/9/4 70/10/4 69/21/4
f 71/36/3 75/25/3 73/14/3 69/15/3
f 76/5/5 72/33/5 70/18/5 74/9/5
